<?xml version="1.0" encoding="utf-8"?>
<!-- Generator: Adobe Illustrator 19.0.0, SVG Export Plug-In . SVG Version: 6.00 Build 0)  -->
<svg version="1.1" id="Layer_1" xmlns="http://www.w3.org/2000/svg" xmlns:xlink="http://www.w3.org/1999/xlink" x="0px" y="0px"
	 viewBox="0 0 50 50" style="enable-background:new 0 0 50 50;" xml:space="preserve">
<style type="text/css">
	.st0{fill:#8C8B8B;}
	.st1{fill:#FFFFFF;}
</style>
<path id="XMLID_7_" class="st0" d="M47.6,16.6v30.5c0,1.1-0.9,1.9-1.9,1.9H4.3c-1.1,0-1.9-0.9-1.9-1.9V16.6"/>
<path id="XMLID_6_" class="st0" d="M47.6,14.6v-7c0-1.1-0.9-1.9-1.9-1.9H4.3c-1.1,0-1.9,0.9-1.9,1.9v7"/>
<path id="XMLID_5_" class="st0" d="M14.2,11.2h-2c-1.1,0-2-0.9-2-2V3.8c0-1.1,0.9-2,2-2h2c1.1,0,2,0.9,2,2v5.5
	C16.2,10.4,15.3,11.2,14.2,11.2z"/>
<rect id="XMLID_4_" x="12.2" y="3.7" class="st1" width="2" height="5.8"/>
<path id="XMLID_3_" class="st0" d="M37.8,11.2h-2c-1.1,0-2-0.9-2-2V3.8c0-1.1,0.9-2,2-2h2c1.1,0,2,0.9,2,2v5.5
	C39.8,10.4,38.9,11.2,37.8,11.2z"/>
<rect id="XMLID_2_" x="35.8" y="3.7" class="st1" width="2" height="5.8"/>
<polygon id="XMLID_1_" class="st1" points="32.6,39.4 26.4,36.2 20.3,39.6 21.4,32.7 16.3,27.9 23.2,26.8 26.2,20.5 29.3,26.7 
	36.2,27.6 31.3,32.5 "/>
</svg>
