<?xml version="1.0" encoding="utf-8"?>
<!-- Generator: Adobe Illustrator 19.0.0, SVG Export Plug-In . SVG Version: 6.00 Build 0)  -->
<svg version="1.1" id="Layer_1" xmlns="http://www.w3.org/2000/svg" xmlns:xlink="http://www.w3.org/1999/xlink" x="0px" y="0px"
	 viewBox="0 0 50 50" style="enable-background:new 0 0 50 50;" xml:space="preserve">
<style type="text/css">
	.st0{fill:#7F7F7F;}
	.st1{fill:#FFFFFF;}
</style>
<g id="XMLID_4_">
	<path id="XMLID_3_" class="st0" d="M10.1,24.9L27.2,7.4c0,0,2.9-2.7,6.8-3.1s11.8,0,11.8,0s3.5,0.7,3.6,3.3
		c0.1,2.6-0.1,12.9-0.1,12.9s-0.8,3.4-2.8,5.6c-0.8,0.9-6.7,6.6-6.7,6.6L29.1,43.5c0,0-2.3,1.8-5,0.5S13.6,33.9,13.6,33.9l-4-4.3
		C9.6,29.6,8.2,26.5,10.1,24.9z"/>
	<path id="XMLID_2_" class="st0" d="M26.1,4.2c0,0-3.7,0.2-6.5,2.5S1,25.3,1,25.3s-1.3,2.6,0,4.4S15.2,44,15.2,44s2.6,1.2,4.3,0.1
		L3.8,28.4c0,0-0.9-1.4,1.4-3.1L26.1,4.2z"/>
	<circle id="XMLID_1_" class="st1" cx="39.4" cy="14.6" r="4.5"/>
</g>
</svg>
