<?xml version="1.0" encoding="utf-8"?>
<!-- Generator: Adobe Illustrator 19.0.0, SVG Export Plug-In . SVG Version: 6.00 Build 0)  -->
<svg version="1.1" id="Layer_1" xmlns="http://www.w3.org/2000/svg" xmlns:xlink="http://www.w3.org/1999/xlink" x="0px" y="0px"
	 viewBox="-454 256 50 50" style="enable-background:new -454 256 50 50;" xml:space="preserve">
<style type="text/css">
	.st0{fill:none;stroke:#8C8C8C;stroke-width:4;stroke-linecap:round;stroke-linejoin:round;stroke-miterlimit:10;}
	.st1{fill:#FFFFFF;}
	.st2{fill:#8C8C8C;}
</style>
<g>
	<g id="Layer_1_1_">
		<ellipse id="XMLID_5_" class="st0" cx="-437.7" cy="274.5" rx="12.7" ry="11.9"/>
		<g id="XMLID_4_">
			<path id="XMLID_33_" class="st1" d="M-448.2,302.4c-0.6,0-1.1-0.3-1.3-0.8c-0.3-0.6-0.2-1.2,0.1-1.6l22.1-29.3
				c0.3-0.4,0.7-0.6,1.2-0.6c0,0,0,0,0.1,0c0.5,0,0.9,0.3,1.2,0.7l18.7,29.3c0.3,0.5,0.3,1,0.1,1.5s-0.8,0.8-1.3,0.8
				C-407.3,302.4-448.2,302.4-448.2,302.4z"/>
			<g id="XMLID_29_">
				<path id="XMLID_30_" class="st1" d="M-426.1,271.6l18.7,29.3h-40.8L-426.1,271.6 M-426.1,268.6c-0.9,0-1.8,0.4-2.4,1.2
					l-22.1,29.3c-0.7,0.9-0.8,2.1-0.3,3.1s1.5,1.7,2.7,1.7h40.8c1.1,0,2.1-0.6,2.6-1.6s0.5-2.1-0.1-3.1l-18.7-29.3
					c-0.5-0.8-1.4-1.3-2.4-1.4C-426,268.6-426.1,268.6-426.1,268.6L-426.1,268.6z"/>
			</g>
		</g>
		<polygon id="XMLID_3_" class="st2" points="-439.7,268.5 -439.6,275.8 -435.4,278.3 -433.3,274.9 -435.4,273.6 -435.4,268.5 		"/>
	</g>
	<g id="XMLID_8_">
		<path id="XMLID_14_" class="st2" d="M-441.8,300c-0.4,0-0.7-0.2-0.9-0.5c-0.2-0.3-0.2-0.7,0-1l14.7-22.6c0.2-0.3,0.5-0.5,0.8-0.5
			c0.3,0,0.7,0.2,0.8,0.5l14.7,22.5c0.2,0.3,0.2,0.7,0,1c-0.2,0.3-0.4,0.6-0.8,0.6H-441.8z"/>
		<g id="XMLID_10_">
			<path id="XMLID_11_" class="st2" d="M-427.2,276.4l14.7,22.6h-29.3L-427.2,276.4 M-427.2,274.4c-0.7,0-1.3,0.3-1.7,0.9
				l-14.6,22.6c-0.4,0.6-0.4,1.4-0.1,2c0.3,0.6,1,1,1.8,1h29.3c0.7,0,1.4-0.4,1.8-1c0.3-0.6,0.3-1.4-0.1-2l-14.7-22.6
				C-425.9,274.8-426.5,274.4-427.2,274.4L-427.2,274.4z"/>
		</g>
	</g>
</g>
</svg>
