<?xml version="1.0" encoding="utf-8"?>
<!-- Generator: Adobe Illustrator 19.0.0, SVG Export Plug-In . SVG Version: 6.00 Build 0)  -->
<svg version="1.1" id="Layer_1" xmlns="http://www.w3.org/2000/svg" xmlns:xlink="http://www.w3.org/1999/xlink" x="0px" y="0px"
	 viewBox="0 0 50 50" style="enable-background:new 0 0 50 50;" xml:space="preserve">
<style type="text/css">
	.st0{fill:#8C8C8C;}
	.st1{fill:#FFFFFF;}
</style>
<g id="XMLID_5_">
	<path id="XMLID_4_" class="st0" d="M12.2,8.8l1.2-1.5c0,0,0.3-0.4,0.7-0.4c0.4,0,22.1,0,22.1,0s0.8,0,2,1.8l11.1,13.8
		c0,0,0.6,0.5,0.6,1.3c0,0.9,0,13.9,0,13.9s0.1,2.9-3.2,3.1L3.6,40.8c0,0-2.7,0-3-2.8V24.2c0,0-0.2-0.7,0.9-2
		C3.1,20.2,12.2,8.8,12.2,8.8z"/>
	<polygon id="XMLID_3_" class="st1" points="15.2,10 3.6,24.5 3.6,25.5 14.5,25.5 20.6,31.6 29.9,31.6 36.1,25.5 46.8,25.5 
		46.9,25.5 46.9,24.4 35.4,10 	"/>
	<path id="XMLID_2_" class="st0" d="M39.1,22.5H11.5c-0.9,0-1.6-0.7-1.6-1.6v0c0-0.9,0.7-1.6,1.6-1.6h27.6c0.9,0,1.6,0.7,1.6,1.6v0
		C40.7,21.8,40,22.5,39.1,22.5z"/>
	<path id="XMLID_1_" class="st0" d="M36.1,16.2H14.5c-0.9,0-1.6-0.7-1.6-1.6v0c0-0.9,0.7-1.6,1.6-1.6h21.6c0.9,0,1.6,0.7,1.6,1.6v0
		C37.7,15.5,37,16.2,36.1,16.2z"/>
</g>
</svg>
