<?xml version="1.0" encoding="utf-8"?>
<!-- Generator: Adobe Illustrator 19.0.0, SVG Export Plug-In . SVG Version: 6.00 Build 0)  -->
<svg version="1.1" id="Layer_1" xmlns="http://www.w3.org/2000/svg" xmlns:xlink="http://www.w3.org/1999/xlink" x="0px" y="0px"
	 viewBox="0 0 50 50" style="enable-background:new 0 0 50 50;" xml:space="preserve">
<style type="text/css">
	.st0{fill:#8C8C8C;}
</style>
<g>
	<path id="XMLID_2_" class="st0" d="M38.8,37.4V44c0,1-0.9,1.9-1.9,1.9H10.3c-1,0-1.9-0.9-1.9-1.9V6c0-1,0.9-1.9,1.9-1.9h26.6
		c1,0,1.9,0.9,1.9,1.9v6.6l3.8,3.3V6c0-3.1-2.6-5.7-5.7-5.7H10.3C7.1,0.3,4.6,2.9,4.6,6v38c0,3.1,2.6,5.7,5.7,5.7h26.6
		c3.1,0,5.7-2.6,5.7-5.7v-9.9L38.8,37.4z"/>
	<g>
		<path id="XMLID_1_" class="st0" d="M31.2,37.3c0,0-1.9,0.5-1.9-1.9c0-0.6,0-2.4,0-4.7H17.9c-1,0-1.9-0.9-1.9-1.9v-7.6
			c0-1,0.9-1.9,1.9-1.9h11.4c0-2.3,0-4.1,0-4.8c0-2.6,1.9-1.8,1.9-1.8L45.4,25L31.2,37.3z"/>
	</g>
</g>
</svg>
