<?xml version="1.0" encoding="utf-8"?>
<!-- Generator: Adobe Illustrator 19.0.0, SVG Export Plug-In . SVG Version: 6.00 Build 0)  -->
<svg version="1.1" id="Layer_1" xmlns="http://www.w3.org/2000/svg" xmlns:xlink="http://www.w3.org/1999/xlink" x="0px" y="0px"
	 viewBox="-392 254.7 175 53.3" style="enable-background:new -392 254.7 175 53.3;" xml:space="preserve">
<style type="text/css">
	.st0{fill:#E31E26;}
	.st1{fill:#888888;stroke:#888888;stroke-width:2;stroke-miterlimit:10;}
	.st2{opacity:0.2;}
	.st3{opacity:0.4;}
	.st4{fill:#2E2C2B;}
	.st5{opacity:0.46;}
	.st6{opacity:0.52;}
	.st7{opacity:0.58;}
	.st8{opacity:0.64;}
	.st9{opacity:0.7;}
	.st10{opacity:0.76;}
	.st11{opacity:0.82;}
	.st12{opacity:0.88;}
	.st13{opacity:0.94;}
	.st14{opacity:0.4667;}
	.st15{opacity:0.5333;}
	.st16{opacity:0.6;}
	.st17{opacity:0.6667;}
	.st18{opacity:0.7333;}
	.st19{opacity:0.8;}
	.st20{opacity:0.8667;}
	.st21{opacity:0.9333;}
	.st22{fill:url(#XMLID_2_);}
	.st23{opacity:0.3;}
	.st24{fill:url(#XMLID_6_);}
	.st25{fill:url(#XMLID_21_);}
	.st26{opacity:0.2;fill:#933E3E;enable-background:new    ;}
	.st27{fill:#CD1717;}
	.st28{fill:#DDDDDD;}
	.st29{fill:#9B9B9B;}
	.st30{fill:#C6C6C6;}
	.st31{fill:none;stroke:#C6C6C6;stroke-width:0.5;stroke-miterlimit:10;}
</style>
<path id="XMLID_5_" class="st0" d="M-349.7,298.5h-13v9.8l-7.9-9.8H-385c-2.3,0-4-1.9-4-4v-34.7c0-2.3,1.9-4,4-4h35.3
	c2.3,0,4,1.9,4,4v34.6C-345.6,296.6-347.4,298.5-349.7,298.5L-349.7,298.5z M-383,289.8c0,1.7,1.3,3,3,3c1.7,0,3-1.3,3-3v-18.2
	c0-1.7-1.3-3-3-3c-1.7,0-3,1.3-3,3V289.8L-383,289.8z M-380.1,260.8c-1.7,0-3,1.3-3,3.1c0,1.7,1.3,3,3,3c1.7,0,3-1.3,3-3
	C-377,262.1-378.3,260.8-380.1,260.8L-380.1,260.8z M-356.2,281.2c0.1-0.1,0.2-0.1,0.2-0.2c0.2-0.2,0.4-0.4,0.6-0.7l0.4-0.4
	c0.1-0.1,0.2-0.2,0.3-0.3c2.5-2.8,5.8-7.8,2.8-13.5c-2.3-4.3-8.9-7-14.9-3.7c-2.9,1.6-5.3,5.3-4.2,9.6c0.8,3.9,6.1,2.8,5.7-0.6
	c-0.6-4.1,3.7-6.4,6.7-4.3c2.4,1.7,3,5.2-1,9.3l-11.4,11.4c-0.5,0.5-0.7,1-0.8,1.7c0,0.2-0.1,0.4-0.1,0.6c0,1.7,1.3,3,3,3h15.6
	c1.7,0,3-1.3,3-3c0-1.7-1.3-3-3-3h-8.6L-356.2,281.2L-356.2,281.2z"/>
<path id="XMLID_10_" class="st1" d="M-304.3,262.8c0,2-1.6,3.5-3.5,3.5h-9.3v26.9l0,0c0,2-1.6,3.5-3.5,3.5s-3.4-1.6-3.4-3.5v-26.9
	h-9.3c-2,0-3.5-1.6-3.5-3.5s1.6-3.5,3.5-3.5h25.6C-305.9,259.3-304.3,260.9-304.3,262.8z"/>
<path id="XMLID_12_" class="st1" d="M-293.4,293.2L-293.4,293.2L-293.4,293.2c0,2-1.6,3.5-3.5,3.5s-3.5-1.6-3.5-3.5c0,0,0,0,0-0.1
	l0,0v-30.3c0-2,1.6-3.5,3.5-3.5s3.5,1.6,3.5,3.5V293.2z"/>
<path id="XMLID_14_" class="st1" d="M-281.7,293.2L-281.7,293.2C-281.8,293.2-281.7,293.2-281.7,293.2c0,2-1.6,3.5-3.5,3.5
	s-3.5-1.6-3.5-3.5c0,0,0,0,0-0.1l0,0v-30.3c0-2,1.6-3.5,3.5-3.5s3.5,1.6,3.5,3.5V293.2z"/>
<path id="XMLID_28_" class="st1" d="M-251,293.2L-251,293.2L-251,293.2c0,2-1.6,3.5-3.5,3.5c-2,0-3.5-1.6-3.5-3.5c0,0,0,0,0-0.1l0,0
	v-30.3c0-2,1.6-3.5,3.5-3.5c2,0,3.5,1.6,3.5,3.5V293.2z"/>
<path id="XMLID_16_" class="st1" d="M-219.3,293.3c0,2-1.6,3.5-3.5,3.5h-20.3c-0.6,0-1.2-0.2-1.8-0.5c-1-0.6-1.8-1.8-1.8-3v-30.4
	l0,0l0,0c0-2,1.6-3.5,3.5-3.5c0.2,0,0.3,0,0.5,0h19.8c2,0,3.5,1.6,3.5,3.5s-1.6,3.5-3.5,3.5h-16.8v8.2h13.9c2,0,3.5,1.6,3.5,3.5
	s-1.6,3.5-3.5,3.5h-13.9v8.2h16.8C-220.8,289.8-219.3,291.3-219.3,293.3z"/>
<g id="XMLID_140_" class="st2">
	<g id="XMLID_41_" class="st3">
		<path id="XMLID_180_" class="st4" d="M-281.4,263.2c0.8-0.4,2.3,0.7,3.3,2.5l10.2,17.8c1,1.8,1.1,3.8,0,4.2
			c-1,0.5-2.6-0.5-3.6-2.3l-9.6-18.1C-282,265.5-282.1,263.7-281.4,263.2z"/>
	</g>
	<g id="XMLID_67_" class="st5">
		<path id="XMLID_181_" class="st4" d="M-281.3,263.1c0.7-0.4,2.3,0.7,3.3,2.5l10.2,17.8c1,1.8,1.1,3.8,0,4.2
			c-1,0.5-2.6-0.5-3.6-2.3l-9.6-18.1C-282,265.4-282.1,263.5-281.3,263.1z"/>
	</g>
	<g id="XMLID_66_" class="st6">
		<path id="XMLID_158_" class="st4" d="M-281.3,263c0.7-0.4,2.3,0.7,3.3,2.5l10.2,17.8c1,1.8,1.1,3.8,0,4.2c-1,0.5-2.6-0.5-3.6-2.3
			l-9.6-18.1C-281.9,265.3-282,263.4-281.3,263z"/>
	</g>
	<g id="XMLID_65_" class="st7">
		<path id="XMLID_155_" class="st4" d="M-281.2,262.9c0.7-0.4,2.2,0.8,3.3,2.6l10.2,17.8c1,1.8,1.1,3.8,0,4.2
			c-1,0.5-2.6-0.5-3.6-2.3l-9.5-18.2C-281.7,265.1-281.9,263.3-281.2,262.9z"/>
	</g>
	<g id="XMLID_64_" class="st8">
		<path id="XMLID_137_" class="st4" d="M-281.2,262.8c0.7-0.4,2.1,0.8,3.2,2.6l10.2,17.8c1,1.8,1.1,3.8,0,4.2
			c-1,0.5-2.6-0.5-3.6-2.3l-9.5-18.2C-281.6,265-281.9,263.2-281.2,262.8z"/>
	</g>
	<g id="XMLID_58_" class="st9">
		<path id="XMLID_126_" class="st4" d="M-281,262.8c0.7-0.4,2.1,0.8,3.2,2.6l10.2,17.8c1,1.8,1.1,3.8,0,4.2c-1,0.5-2.6-0.5-3.5-2.3
			l-9.4-18.2C-281.6,264.9-281.8,263-281,262.8z"/>
	</g>
	<g id="XMLID_57_" class="st10">
		<path id="XMLID_123_" class="st4" d="M-280.9,262.6c0.7-0.4,2.1,0.8,3.2,2.6l10.2,17.8c1,1.8,1.1,3.8,0,4.2
			c-1,0.5-2.6-0.5-3.5-2.3l-9.4-18.2C-281.5,264.8-281.7,263-280.9,262.6z"/>
	</g>
	<g id="XMLID_56_" class="st11">
		<path id="XMLID_121_" class="st4" d="M-280.9,262.5c0.7-0.4,2.1,0.8,3.2,2.6l10.2,17.8c1,1.8,1.1,3.8,0,4.2
			c-1,0.5-2.6-0.5-3.5-2.3l-9.3-18.3C-281.4,264.7-281.6,262.9-280.9,262.5z"/>
	</g>
	<g id="XMLID_50_" class="st12">
		<path id="XMLID_119_" class="st4" d="M-280.8,262.4c0.7-0.4,2,0.8,3.1,2.5l10.2,17.8c1,1.8,1.1,3.8,0,4.2c-1,0.5-2.6-0.5-3.5-2.3
			l-9.3-18.3C-281.3,264.6-281.5,262.8-280.8,262.4z"/>
	</g>
	<g id="XMLID_44_" class="st13">
		<path id="XMLID_117_" class="st4" d="M-280.8,262.3c0.6-0.4,2,0.8,3.1,2.5l10.2,17.8c1,1.8,1.1,3.8,0,4.2c-1,0.5-2.6-0.5-3.5-2.3
			l-9.3-18.3C-281.3,264.5-281.4,262.7-280.8,262.3z"/>
	</g>
	<g id="XMLID_19_">
		<path id="XMLID_82_" class="st4" d="M-280.7,262.2c0.6-0.4,2,0.9,3.1,2.6l10.2,17.8c1,1.8,1.1,3.8,0,4.2c-1,0.5-2.6-0.5-3.5-2.3
			l-9.3-18.4C-281.1,264.3-281.4,262.5-280.7,262.2z"/>
	</g>
</g>
<g id="XMLID_104_" class="st2">
	<g id="XMLID_105_">
		<g id="XMLID_3_" class="st3">
			<path id="XMLID_115_" class="st4" d="M-270.7,288.8c-0.8,1.8-2.2,3-2.8,2.6s-0.5-2.1,0.5-3.8l12.6-24.5c0.9-1.7,2.1-2.9,2.6-2.7
				c0.5,0.3,0.2,2-0.6,3.8L-270.7,288.8z"/>
		</g>
		<g id="XMLID_62_" class="st14">
			<path id="XMLID_114_" class="st4" d="M-270.9,289c-0.8,1.6-2,2.6-2.6,2.2c-0.6-0.3-0.5-1.9,0.3-3.5l12.9-25
				c0.8-1.6,1.9-2.6,2.4-2.3c0.5,0.3,0.3,1.8-0.5,3.4L-270.9,289z"/>
		</g>
		<g id="XMLID_60_" class="st15">
			<path id="XMLID_112_" class="st4" d="M-271.1,289.4c-0.6,1.4-1.8,2.2-2.4,1.9s-0.6-1.8,0.1-3.1l13.2-25.8c0.7-1.4,1.7-2.3,2.2-2
				c0.5,0.3,0.4,1.6-0.3,3L-271.1,289.4z"/>
		</g>
		<g id="XMLID_49_" class="st16">
			<path id="XMLID_96_" class="st4" d="M-271.3,289.6c-0.6,1.2-1.6,1.9-2.2,1.5s-0.7-1.6-0.1-2.7l13.5-26.4c0.6-1.2,1.5-1.9,2-1.7
				c0.5,0.3,0.4,1.4-0.2,2.6L-271.3,289.6z"/>
		</g>
		<g id="XMLID_47_" class="st17">
			<path id="XMLID_125_" class="st4" d="M-271.4,289.9c-0.4,1-1.4,1.5-2,1.2s-0.8-1.4-0.2-2.4l13.8-27c0.5-1,1.2-1.6,1.8-1.3
				c0.5,0.3,0.5,1.2-0.1,2.2L-271.4,289.9z"/>
		</g>
		<g id="XMLID_27_" class="st18">
			<path id="XMLID_129_" class="st4" d="M-271.7,290.2c-0.4,0.8-1.3,1.1-1.9,0.9c-0.6-0.3-0.8-1.3-0.4-2l14.1-27.7
				c0.4-0.8,1.1-1.2,1.6-1c0.5,0.2,0.5,1,0.1,1.9L-271.7,290.2z"/>
		</g>
		<g id="XMLID_26_" class="st19">
			<path id="XMLID_139_" class="st4" d="M-271.9,290.5c-0.2,0.6-1,0.8-1.6,0.5l-0.2-0.1c-0.6-0.2-0.8-1.1-0.5-1.6l14.4-28.3
				c0.3-0.6,0.8-0.9,1.3-0.7c0.4,0.2,0.6,0.9,0.2,1.5L-271.9,290.5z"/>
		</g>
		<g id="XMLID_25_" class="st20">
			<path id="XMLID_157_" class="st4" d="M-272,290.7c-0.2,0.4-0.6,0.5-1.1,0.3l-0.9-0.5c-0.4-0.2-0.5-0.7-0.3-1.1l14.7-29
				c0.2-0.4,0.6-0.5,1.1-0.3l0,0c0.4,0.2,0.5,0.7,0.3,1.1L-272,290.7z"/>
		</g>
		<g id="XMLID_24_" class="st21">
			<path id="XMLID_159_" class="st4" d="M-272.2,291c0,0.2-0.3,0.3-0.5,0.2l-1.6-0.8c-0.2-0.1-0.3-0.3-0.2-0.5l14.9-29.6
				c0.1-0.2,0.3-0.3,0.5-0.2l0.6,0.3c0.2,0.1,0.3,0.3,0.2,0.5L-272.2,291z"/>
		</g>
		<polygon id="XMLID_4_" class="st4" points="-272.4,291.3 -274.6,290.2 -259.4,260 -258.1,260.7 		"/>
	</g>
</g>
<g id="XMLID_97_">
	<g id="XMLID_98_">
		
			<linearGradient id="XMLID_2_" gradientUnits="userSpaceOnUse" x1="-306.5462" y1="286.282" x2="-281.3732" y2="286.282" gradientTransform="matrix(0.9069 -0.1982 -0.1964 -0.8986 56.608 474.4382)">
			<stop  offset="7.266920e-002" style="stop-color:#2E2C2B"/>
			<stop  offset="0.1541" style="stop-color:#373533"/>
			<stop  offset="0.3378" style="stop-color:#444441"/>
			<stop  offset="0.5577" style="stop-color:#4D4C49"/>
			<stop  offset="0.9073" style="stop-color:#4F4F4B"/>
		</linearGradient>
		<path id="XMLID_103_" class="st22" d="M-272.4,291.2c-0.1,0.2-0.4,0.3-0.6,0.2l-1.8-0.9c-0.2-0.1-0.3-0.4-0.2-0.6l15.5-30.3
			c0.1-0.2,0.4-0.3,0.6-0.2l0.9,0.4c0.2,0.1,0.3,0.4,0.2,0.6L-272.4,291.2z"/>
		<g id="XMLID_99_" class="st23">
			
				<linearGradient id="XMLID_6_" gradientUnits="userSpaceOnUse" x1="-306.5385" y1="279.1483" x2="-281.3662" y2="279.1483" gradientTransform="matrix(0.9069 -0.1982 0.1964 0.8986 -54.4559 -33.6381)">
				<stop  offset="7.266920e-002" style="stop-color:#2E2C2B"/>
				<stop  offset="0.1541" style="stop-color:#373533"/>
				<stop  offset="0.3378" style="stop-color:#444441"/>
				<stop  offset="0.5577" style="stop-color:#4D4C49"/>
				<stop  offset="0.9073" style="stop-color:#4F4F4B"/>
			</linearGradient>
			<path id="XMLID_100_" class="st24" d="M-259.1,259.6c0.1,0,0.2,0,0.2,0l0.9,0.4c0.1,0.1,0.1,0.2,0.1,0.4l-14.7,30.7l-0.1,0.1
				c-0.1,0-0.2,0-0.2,0l-1.8-0.9c0,0-0.1-0.1-0.1-0.2s0-0.1,0.1-0.2L-259.1,259.6C-259.2,259.7-259.1,259.6-259.1,259.6
				 M-259.2,259.5c-0.1,0-0.1,0.1-0.2,0.1l-15.5,30.3c-0.1,0.2,0,0.5,0.2,0.6l1.8,0.9c0.1,0.1,0.3,0,0.5,0c0.1,0,0.1-0.1,0.1-0.2
				l14.6-30.7c0.1-0.2,0-0.5-0.2-0.6l-0.9-0.4C-258.8,259.4-259.1,259.3-259.2,259.5L-259.2,259.5z"/>
		</g>
	</g>
</g>
<g id="XMLID_94_">
	
		<linearGradient id="XMLID_21_" gradientUnits="userSpaceOnUse" x1="-257.2721" y1="286.5418" x2="-238.2041" y2="286.5418" gradientTransform="matrix(0.9731 0.2001 0.1795 -0.8733 -84.4583 574.4046)">
		<stop  offset="7.266920e-002" style="stop-color:#2E2C2B"/>
		<stop  offset="0.1541" style="stop-color:#373533"/>
		<stop  offset="0.3378" style="stop-color:#444441"/>
		<stop  offset="0.5577" style="stop-color:#4D4C49"/>
		<stop  offset="0.9073" style="stop-color:#4F4F4B"/>
	</linearGradient>
	<path id="XMLID_79_" class="st25" d="M-281,262.2c0.7-0.3,2.1,0.9,3.1,2.7l10.4,18c1,1.8,0.9,3.6-0.1,4c-1,0.4-2.7-0.6-3.7-2.5
		l-9.2-18.4C-281.5,264.1-281.7,262.4-281,262.2z"/>
</g>
<path id="XMLID_93_" class="st26" d="M-264,266c-0.7-0.3-1.6,0.1-1.9,0.8c-0.2,0.6,0,1.4,0.6,1.8l-11.1,28.5l0.5,0.2l11.2-28.4
	c0.6,0,1.2-0.4,1.6-1C-262.9,267.2-263.2,266.3-264,266z"/>
<path id="XMLID_48_" class="st27" d="M-263.1,266c-0.8-0.3-1.8,0.1-2.1,0.8c-0.3,0.6,0,1.4,0.7,1.8l-12.1,28.6l0.5,0.2l12.1-28.5
	c0.7,0.1,1.6-0.2,1.9-0.9C-261.8,267.2-262.2,266.3-263.1,266z"/>
<g id="XMLID_20_">
	<circle id="XMLID_46_" class="st27" cx="-269.9" cy="282.1" r="1.3"/>
	<g id="XMLID_30_">
		<circle id="XMLID_45_" class="st28" cx="-269.9" cy="282.1" r="0.5"/>
		<path id="XMLID_31_" class="st29" d="M-269.9,281.7c0.2,0,0.4,0.2,0.4,0.4c0,0.2-0.2,0.4-0.4,0.4s-0.4-0.2-0.4-0.4
			C-270.3,281.9-270.1,281.7-269.9,281.7 M-269.9,281.5c-0.3,0-0.6,0.3-0.6,0.6c0,0.3,0.3,0.6,0.6,0.6s0.6-0.3,0.6-0.6
			C-269.1,281.7-269.4,281.5-269.9,281.5L-269.9,281.5z"/>
	</g>
</g>
<g id="XMLID_426_">
	<path id="XMLID_428_" class="st30" d="M-270,260.4c-0.2,0-0.4,0.7-0.4,1.6s0.2,1.6,0.4,1.6s0.4-0.7,0.4-1.6S-269.8,260.4-270,260.4
		z"/>
	<path id="XMLID_427_" class="st31" d="M-270,260.4c-0.2,0-0.4,0.7-0.4,1.6s0.2,1.6,0.4,1.6s0.4-0.7,0.4-1.6S-269.8,260.4-270,260.4
		z"/>
</g>
<g id="XMLID_423_">
	<path id="XMLID_425_" class="st30" d="M-285.2,270.9c0.7,0.4,1.4,0.6,1.6,0.4s-0.4-0.7-1.1-1.1c-0.7-0.4-1.4-0.6-1.6-0.4
		C-286.4,270-285.9,270.5-285.2,270.9z"/>
	<path id="XMLID_424_" class="st31" d="M-285.2,270.9c0.7,0.4,1.4,0.6,1.6,0.4s-0.4-0.7-1.1-1.1c-0.7-0.4-1.4-0.6-1.6-0.4
		C-286.4,270-285.9,270.5-285.2,270.9z"/>
</g>
<g id="XMLID_420_">
	<path id="XMLID_422_" class="st30" d="M-256.4,271.3c0.1,0.2,0.8,0,1.6-0.4c0.7-0.4,1.2-0.9,1.1-1.1c-0.1-0.2-0.8,0-1.6,0.4
		C-256,270.6-256.5,271.1-256.4,271.3z"/>
	<path id="XMLID_421_" class="st31" d="M-256.4,271.3c0.1,0.2,0.8,0,1.6-0.4c0.7-0.4,1.2-0.9,1.1-1.1c-0.1-0.2-0.8,0-1.6,0.4
		C-256,270.6-256.5,271.1-256.4,271.3z"/>
</g>
<g id="XMLID_417_">
	<path id="XMLID_419_" class="st30" d="M-287.2,279.6c0.8,0,1.6-0.2,1.6-0.4s-0.7-0.4-1.6-0.4s-1.6,0.2-1.6,0.4
		S-288.1,279.6-287.2,279.6z"/>
	<path id="XMLID_418_" class="st31" d="M-287.2,279.6c0.8,0,1.6-0.2,1.6-0.4s-0.7-0.4-1.6-0.4s-1.6,0.2-1.6,0.4
		S-288.1,279.6-287.2,279.6z"/>
</g>
<g id="XMLID_411_">
	<path id="XMLID_413_" class="st30" d="M-261,293.9c-0.4-0.7-0.9-1.2-1.1-1.1s0,0.8,0.4,1.6c0.4,0.7,0.9,1.2,1.1,1.1
		C-260.3,295.3-260.5,294.6-261,293.9z"/>
	<path id="XMLID_412_" class="st31" d="M-261,293.9c-0.4-0.7-0.9-1.2-1.1-1.1s0,0.8,0.4,1.6c0.4,0.7,0.9,1.2,1.1,1.1
		C-260.3,295.3-260.5,294.6-261,293.9z"/>
</g>
<g id="XMLID_408_">
	<path id="XMLID_410_" class="st30" d="M-251.2,279.2c0-0.2-0.7-0.4-1.6-0.4c-0.8,0-1.6,0.2-1.6,0.4s0.7,0.4,1.6,0.4
		C-251.8,279.6-251.2,279.4-251.2,279.2z"/>
	<path id="XMLID_409_" class="st31" d="M-251.2,279.2c0-0.2-0.7-0.4-1.6-0.4c-0.8,0-1.6,0.2-1.6,0.4s0.7,0.4,1.6,0.4
		C-251.8,279.6-251.2,279.4-251.2,279.2z"/>
</g>
<g id="XMLID_405_">
	<path id="XMLID_407_" class="st30" d="M-254.8,287.5c-0.7-0.4-1.4-0.6-1.6-0.4c-0.1,0.2,0.4,0.7,1.1,1.1c0.7,0.4,1.4,0.6,1.6,0.4
		C-253.6,288.4-254.1,287.9-254.8,287.5z"/>
	<path id="XMLID_406_" class="st31" d="M-254.8,287.5c-0.7-0.4-1.4-0.6-1.6-0.4c-0.1,0.2,0.4,0.7,1.1,1.1c0.7,0.4,1.4,0.6,1.6,0.4
		C-253.6,288.4-254.1,287.9-254.8,287.5z"/>
</g>
<g id="XMLID_402_">
	<path id="XMLID_404_" class="st30" d="M-283.6,287.1c-0.1-0.2-0.8,0-1.6,0.4c-0.7,0.4-1.2,0.9-1.1,1.1s0.8,0,1.6-0.4
		C-283.9,287.8-283.4,287.3-283.6,287.1z"/>
	<path id="XMLID_403_" class="st31" d="M-283.6,287.1c-0.1-0.2-0.8,0-1.6,0.4c-0.7,0.4-1.2,0.9-1.1,1.1s0.8,0,1.6-0.4
		C-283.9,287.8-283.4,287.3-283.6,287.1z"/>
</g>
<g id="XMLID_399_">
	<path id="XMLID_401_" class="st30" d="M-270,294.9c-0.2,0-0.4,0.7-0.4,1.6s0.2,1.6,0.4,1.6s0.4-0.7,0.4-1.6S-269.8,294.9-270,294.9
		z"/>
	<path id="XMLID_400_" class="st31" d="M-270,294.9c-0.2,0-0.4,0.7-0.4,1.6s0.2,1.6,0.4,1.6s0.4-0.7,0.4-1.6S-269.8,294.9-270,294.9
		z"/>
</g>
<g id="XMLID_396_">
	<path id="XMLID_398_" class="st30" d="M-277.8,292.8c-0.2-0.1-0.7,0.4-1.1,1.1c-0.4,0.7-0.6,1.4-0.4,1.6c0.2,0.1,0.7-0.4,1.1-1.1
		C-277.8,293.6-277.6,292.9-277.8,292.8z"/>
	<path id="XMLID_397_" class="st31" d="M-277.8,292.8c-0.2-0.1-0.7,0.4-1.1,1.1c-0.4,0.7-0.6,1.4-0.4,1.6c0.2,0.1,0.7-0.4,1.1-1.1
		C-277.8,293.6-277.6,292.9-277.8,292.8z"/>
</g>
</svg>
