<?xml version="1.0" encoding="utf-8"?>
<!-- Generator: Adobe Illustrator 19.0.0, SVG Export Plug-In . SVG Version: 6.00 Build 0)  -->
<svg version="1.1" id="Layer_1" xmlns="http://www.w3.org/2000/svg" xmlns:xlink="http://www.w3.org/1999/xlink" x="0px" y="0px"
	 viewBox="0 0 50 50" style="enable-background:new 0 0 50 50;" xml:space="preserve">
<style type="text/css">
	.st0{fill:#8C8C8C;}
</style>
<g id="XMLID_1_">
	<path id="XMLID_5_" class="st0" d="M19.5,22.7H6.6c-2.4,0-4.3-1.9-4.3-4.3V5.5c0-2.4,1.9-4.3,4.3-4.3h12.9c2.4,0,4.3,1.9,4.3,4.3
		v12.9C23.8,20.8,21.8,22.7,19.5,22.7z"/>
	<path id="XMLID_4_" class="st0" d="M44.7,22.6H31.8c-2.4,0-4.3-1.9-4.3-4.3V5.4c0-2.4,1.9-4.3,4.3-4.3h12.9C47.1,1.1,49,3,49,5.4
		v12.9C49,20.6,47.1,22.6,44.7,22.6z"/>
	<path id="XMLID_3_" class="st0" d="M19.5,47.9H6.6c-2.4,0-4.3-1.9-4.3-4.3V30.7c0-2.4,1.9-4.3,4.3-4.3h12.9c2.4,0,4.3,1.9,4.3,4.3
		v12.9C23.8,46,21.8,47.9,19.5,47.9z"/>
	<path id="XMLID_2_" class="st0" d="M44.7,47.8H31.8c-2.4,0-4.3-1.9-4.3-4.3V30.6c0-2.4,1.9-4.3,4.3-4.3h12.9c2.4,0,4.3,1.9,4.3,4.3
		v12.9C49,45.9,47.1,47.8,44.7,47.8z"/>
</g>
</svg>
