<?xml version="1.0" encoding="utf-8"?>
<!-- Generator: Adobe Illustrator 19.0.0, SVG Export Plug-In . SVG Version: 6.00 Build 0)  -->
<svg version="1.1" id="Layer_1" xmlns="http://www.w3.org/2000/svg" xmlns:xlink="http://www.w3.org/1999/xlink" x="0px" y="0px"
	 viewBox="0 0 50 50" style="enable-background:new 0 0 50 50;" xml:space="preserve">
<style type="text/css">
	.st0{fill:#8C8C8C;}
	.st1{clip-path:url(#XMLID_9_);fill:#8C8C8C;}
</style>
<circle id="XMLID_7_" class="st0" cx="30.4" cy="20.1" r="11.4"/>
<path id="XMLID_6_" class="st0" d="M16.9,32.7l4.7,4.5l-7.4-0.1c0,0,0.8,8.2,7,10.4l28,0.1c0,0,2-12.4-9.7-18.3
	c0,0-9.4,8.5-18.4,0.1L16.9,32.7z"/>
<path id="XMLID_5_" class="st0" d="M1.2,35.9h4.4c0,0-0.6,8.5,11.8,11.7c0,0-5.3-4.8-5.1-11.7h4.5L9,28.4L1.2,35.9z"/>
<path id="XMLID_4_" class="st0" d="M0.4,30.2l3.9-0.1l5.3-5.2l4.2,4.3c0,0,4.1-3.5,4.4-3.6c1.1-0.8-0.5-4-0.5-4s-6.1,1.3-9.9-2.9
	C7.8,18.6,1.7,21.4,0.4,30.2z"/>
<path id="XMLID_3_" class="st0" d="M23.2,9.4c-1.8,1.2-4.8,3.9-5.7,9c-1,0.4-2.1,0.6-3.2,0.6c-3.3,0-6.3-1.8-7.8-4.6
	c-0.7-1.3-1.1-2.8-1.1-4.4c0-4.9,4-8.9,8.9-8.9c0.2,0,0.4,0,0.6,0C19.3,1.5,22.9,5,23.2,9.4z"/>
<g>
	<defs>
		<path id="XMLID_1_" d="M23.1,9c0,0-0.5,0.2-1.3,0.7c-1.7,1.1-4.5,3.6-5.3,8.3c-0.1,0.5-0.2,1.1-0.2,1.7c0,0-7.4,1.1-10-5.3
			c-0.5-1.1-0.8-2.5-0.9-4.1c0,0,0.8-7.7,8.7-8.2c0.6,0,1.3,0,2,0C16.1,2.1,22.2,3.4,23.1,9z"/>
	</defs>
	<clipPath id="XMLID_9_">
		<use xlink:href="#XMLID_1_"  style="overflow:visible;"/>
	</clipPath>
	<path id="XMLID_2_" class="st1" d="M21.9,10.3c0,3.5-2.2,6.5-5.3,7.7c0.8-4.7,3.6-7.2,5.3-8.3C21.8,9.9,21.9,10.1,21.9,10.3z"/>
</g>
</svg>
